<?xml version="1.0" encoding="UTF-8"?>
<svg id="Layer_1" data-name="Layer 1" xmlns="http://www.w3.org/2000/svg" viewBox="0 0 23 26.98">
  <defs>
    <style>
      .cls-1 {
        fill: #252525;
      }
    </style>
  </defs>
  <path class="cls-1" d="m22.15,17.65c-.52-1.4-1.21-2.62-4.01-3.2,2.75-.68,4.23-2.72,4.21-5.87C22.84-3.87-1.29-2.71.86,11.66h5.14C-.92,8.01,4.94,1.17,11.4,1.07c.13,6.68,2.1,23.61-2.5,24.24-3.8-.04-6.18-6.09-6.99-9.55,4.61.02,4.08,0,6.67-.07v-1.49c-2.89.03-5.67.13-8.58.04.35,4.13,1.06,11.76.96,12.73.77,0,1.46,0,2.22,0-.85-1.82-.74-3.02.94-1.65C17.1,33.11,13.3,9.15,13.1,1.06c10.29,1.26,9.53,13.18,2,13.15v1.49c1.5.11,3.35-.45,4.31.98,2.29,3.05,1.32,8.7-1.44,10.31h5.01c-.01-3.05.24-6.42-.84-9.32Z"/>
</svg>